<?xml version="1.0" encoding="UTF-8"?>
<svg version="1.1" xmlns="http://www.w3.org/2000/svg" width="500" height="500">
<path d="M0 0 C165 0 330 0 500 0 C500 165 500 330 500 500 C335 500 170 500 0 500 C0 335 0 170 0 0 Z " fill="#FEFEFE" transform="translate(0,0)"/>
<path d="M0 0 C17.49 0 34.98 0 53 0 C57.49782245 11.24455611 57.49782245 11.24455611 58.7109375 15.5234375 C58.98292969 16.47081787 59.25492187 17.41819824 59.53515625 18.39428711 C59.81230469 19.37792236 60.08945313 20.36155762 60.375 21.375 C60.9862583 23.50932117 61.59824804 25.64343298 62.2109375 27.77734375 C62.66291504 29.35684814 62.66291504 29.35684814 63.12402344 30.96826172 C64.37661126 35.30344442 65.6872073 39.62025338 67 43.9375 C69.30232349 51.5318465 71.44846346 59.16379044 73.5625 66.8125 C75.77340817 74.79954101 78.13929573 82.66830377 80.828125 90.5078125 C83.81252999 99.40133936 86.30140117 108.45664727 88.80078125 117.49609375 C89.11289551 118.62225098 89.42500977 119.7484082 89.74658203 120.90869141 C90.36491213 123.14552542 90.97929166 125.38345595 91.58935547 127.62255859 C91.87311035 128.65074707 92.15686523 129.67893555 92.44921875 130.73828125 C92.70018311 131.65649658 92.95114746 132.57471191 93.2097168 133.52075195 C93.94748805 135.83526139 94.84718632 137.86671813 96 140 C99.39715727 129.55965221 102.58043341 119.0845437 105.5 108.5 C107.53611022 101.12000522 109.64379457 93.78431971 112 86.5 C114.65772465 78.26999826 117.00870518 69.96963682 119.31762695 61.63574219 C123.36836871 47.02314081 127.56841684 32.44982631 132.09375 17.9765625 C133.53514126 13.24233776 134.8494651 8.47285136 136.16796875 3.703125 C137 1 137 1 138 0 C139.65738443 -0.09346915 141.31874644 -0.11744977 142.97875977 -0.11352539 C144.03978409 -0.11344986 145.10080841 -0.11337433 146.19398499 -0.11329651 C147.348134 -0.10813522 148.50228302 -0.10297394 149.69140625 -0.09765625 C150.86638168 -0.0962413 152.04135712 -0.09482635 153.25193787 -0.09336853 C157.02215064 -0.08774992 160.79230504 -0.07519426 164.5625 -0.0625 C167.11132727 -0.0574874 169.66015547 -0.05292408 172.20898438 -0.04882812 C178.47267633 -0.03777444 184.73633399 -0.02101821 191 0 C192.60407974 6.2999935 194.19904504 12.58302897 195.4296875 18.96875 C195.66502197 20.18481934 195.90035645 21.40088867 196.14282227 22.65380859 C196.38444092 23.92305176 196.62605957 25.19229492 196.875 26.5 C197.13655321 27.86150706 197.39819225 29.22299762 197.65991211 30.58447266 C199.36716845 39.5019102 200.9858443 48.43349585 202.5625 57.375 C204.14279879 66.33044773 205.78971278 75.2680143 207.5625 84.1875 C207.84105835 85.60071533 207.84105835 85.60071533 208.12524414 87.04248047 C209.8764379 95.74332326 211.93772246 104.36879759 214 113 C214.24834091 112.37803741 214.49668182 111.75607483 214.75254822 111.11526489 C217.33065996 104.65894875 219.90997173 98.203113 222.48999023 91.74755859 C223.45351645 89.33622414 224.41673357 86.92476614 225.37963867 84.51318359 C226.76139955 81.05273664 228.14426077 77.59273121 229.52734375 74.1328125 C229.95965805 73.04944611 230.39197235 71.96607971 230.83738708 70.84988403 C231.23772659 69.8489975 231.6380661 68.84811096 232.05053711 67.81689453 C232.40361435 66.93309113 232.75669159 66.04928772 233.12046814 65.13870239 C234 63 234 63 235 61 C239.95 61 244.9 61 250 61 C251.88469564 65.5671597 253.76887477 70.13452639 255.65185547 74.70239258 C256.28959329 76.24905878 256.92760419 77.79561242 257.56591797 79.34204102 C258.49522581 81.59360026 259.4234758 83.84559341 260.3515625 86.09765625 C260.6268277 86.76394547 260.9020929 87.43023468 261.18569946 88.11671448 C264.1804953 95.38944366 267.07835967 102.69589918 270 110 C270.33 93.83 270.66 77.66 271 61 C276.61 61 282.22 61 288 61 C288 86.41 288 111.82 288 138 C279.75 138 271.5 138 263 138 C258 126.375 258 126.375 258 123 C247.77 123 237.54 123 227 123 C226.34 125.97 225.68 128.94 225 132 C224.36515933 134.01032877 223.71228144 136.01578741 223 138 C221.35 138 219.7 138 218 138 C218.11480713 138.56879883 218.22961426 139.13759766 218.34790039 139.72363281 C219.76882452 146.77341564 221.17669628 153.82575984 222.57836914 160.87939453 C222.86956517 162.34397401 223.16108975 163.80848818 223.45288086 165.27294922 C224.41922144 170.12318743 225.38012696 174.97445533 226.33468628 179.82702637 C226.65245917 181.43843954 226.97188909 183.04952686 227.29299927 184.66027832 C227.74800451 186.9445338 228.19694714 189.22990543 228.64453125 191.515625 C228.78179626 192.19802246 228.91906128 192.88041992 229.06048584 193.58349609 C229.76076301 197.19563139 230 200.272913 230 204 C213.83 204 197.66 204 181 204 C179.2675 193.8215625 179.2675 193.8215625 177.5 183.4375 C177.10949463 181.14337158 176.71898926 178.84924316 176.31665039 176.4855957 C174.35413655 164.95628237 172.39186101 153.42692859 170.43034363 141.89744568 C169.60308972 137.03530148 168.77545697 132.17322232 167.94702148 127.3112793 C167.61831659 125.38200044 167.2896219 123.45271985 166.9609375 121.5234375 C166.79958817 120.57638443 166.63823883 119.62933136 166.47200012 118.65357971 C165.47049531 112.77206512 164.47308482 106.88987064 163.4785614 101.00717163 C162.82903861 97.16681554 162.17773103 93.32676332 161.52615356 89.48675537 C161.2195299 87.6768826 160.91375006 85.86686664 160.6088562 84.05670166 C160.19059798 81.5738911 159.76945988 79.0915853 159.34765625 76.609375 C159.22512482 75.87739899 159.10259338 75.14542297 158.97634888 74.39126587 C158.48182556 71.49580292 157.93081517 68.79244552 157 66 C156.82460693 66.66717041 156.64921387 67.33434082 156.46850586 68.02172852 C153.40604765 79.63168915 150.31499242 91.22041113 146.75 102.6875 C143.49625606 113.18174402 140.47889804 123.73768843 137.5 134.3125 C137.26128174 135.15968597 137.02256348 136.00687195 136.77661133 136.87973022 C133.57642302 148.25198297 130.46695026 159.64431513 127.43725586 171.06323242 C124.5659462 181.79277107 121.29604759 192.39491772 118 203 C111.7704242 203.07589768 105.54096705 203.12853504 99.31103516 203.16479492 C97.19054712 203.17990645 95.07009046 203.2003964 92.94970703 203.22631836 C89.90649689 203.26259786 86.86369897 203.27970242 83.8203125 203.29296875 C82.86818878 203.30845261 81.91606506 203.32393646 80.93508911 203.33988953 C79.61394608 203.34022942 79.61394608 203.34022942 78.26611328 203.34057617 C77.10029221 203.35056892 77.10029221 203.35056892 75.91091919 203.36076355 C75.28031586 203.24171158 74.64971252 203.12265961 74 203 C72.14201474 200.21302211 71.4759395 198.55491262 70.66015625 195.390625 C70.4075 194.42809814 70.15484375 193.46557129 69.89453125 192.47387695 C69.61996094 191.40999756 69.34539062 190.34611816 69.0625 189.25 C68.44093571 186.89396733 67.81708758 184.53853642 67.19140625 182.18359375 C67.02230743 181.54661057 66.85320862 180.90962738 66.6789856 180.25334167 C64.36870794 171.58349563 61.93529155 162.94790102 59.5 154.3125 C59.26206726 153.46788208 59.02413452 152.62326416 58.7789917 151.75305176 C55.76428176 141.06451142 52.64936076 130.4169243 49.3515625 119.81176758 C47.12888641 112.59813674 45.22011622 105.32195121 43.3687439 98.00524902 C41.54043983 90.86782094 39.48450938 83.821009 37.3125 76.78125 C36.99216797 75.73614258 36.67183594 74.69103516 36.34179688 73.61425781 C35.56332499 71.07550994 34.78270423 68.53744555 34 66 C33.89026352 66.64811142 33.78052704 67.29622284 33.66746521 67.963974 C23.27073989 129.36475222 23.27073989 129.36475222 18.20298767 158.960495 C17.36617198 163.85036652 16.53421248 168.74104211 15.70532227 173.63226318 C15.14608872 176.93084014 14.58507282 180.22911262 14.02380371 183.52734375 C13.76100014 185.0744017 13.49901732 186.62159933 13.23791504 188.16894531 C12.88210623 190.27706312 12.52342058 192.38467227 12.1640625 194.4921875 C11.96248535 195.68183105 11.7609082 196.87147461 11.55322266 198.09716797 C11 201 11 201 10 204 C-6.17 204 -22.34 204 -39 204 C-37.87364351 193.86279157 -37.87364351 193.86279157 -36.94921875 188.8828125 C-36.74756104 187.79194336 -36.54590332 186.70107422 -36.33813477 185.57714844 C-36.12342529 184.43793945 -35.90871582 183.29873047 -35.6875 182.125 C-35.46312256 180.92391602 -35.23874512 179.72283203 -35.00756836 178.48535156 C-33.62518734 171.14473645 -32.15619367 163.82953749 -30.58398438 156.52758789 C-28.2946635 145.82501279 -26.28261175 135.06633622 -24.2177887 124.31872559 C-23.29089903 119.49846712 -22.35363007 114.68031914 -21.41015625 109.86328125 C-18.71986963 96.11628759 -16.06079107 82.36431554 -13.47265625 68.59765625 C-13.25316315 67.43065186 -13.03367004 66.26364746 -12.80752563 65.0612793 C-11.71898755 59.27046559 -10.63335332 53.47912608 -9.55175781 47.68701172 C-7.45858743 36.50930105 -5.2928618 25.35643978 -2.90112305 14.23852539 C-1.89385265 9.50072495 -0.94992604 4.74963022 0 0 Z " fill="#020202" transform="translate(121,151)"/>
<path d="M0 0 C2.26759435 2.26759435 2.85464688 3.90558433 3.9453125 6.90234375 C4.29980469 7.87494141 4.65429688 8.84753906 5.01953125 9.84960938 C5.56673828 11.37811523 5.56673828 11.37811523 6.125 12.9375 C6.68380859 14.46020508 6.68380859 14.46020508 7.25390625 16.01367188 C10 23.61320971 10 23.61320971 10 27 C3.73 27 -2.54 27 -9 27 C-8.28865192 22.73191153 -7.66588373 19.71227246 -6.15234375 15.8203125 C-5.79462891 14.8921875 -5.43691406 13.9640625 -5.06835938 13.0078125 C-4.50858398 11.58082031 -4.50858398 11.58082031 -3.9375 10.125 C-3.37192383 8.66320312 -3.37192383 8.66320312 -2.79492188 7.171875 C-1.86835624 4.77922451 -0.93659209 2.38873946 0 0 Z " fill="#EEEEEE" transform="translate(363,233)"/>
</svg>
